# xmcd
#
# Track frame offsets:
#        150
#        15373
#        31157
#        42055
#        57673
#        71879
#        88498
#        102238
#        113873
#        129584
#        145244
#        165436
#
# Disc length: 2442 seconds
#
# Revision: 7
# Processed by: cddbd v1.5.2PL0 Copyright (c) Steve Scherf et al.
# Submitted via: jack 3.1.1
#
DISCID=a309880c
DTITLE=Calexico - Edge Of The Sun
DYEAR=2015
DGENRE=Americana
TTITLE0=Falling From The Sky
TTITLE1=Bullets and Rocks
TTITLE2=When The Angels Played
TTITLE3=Tapping On The Line
TTITLE4=Cumbia De Donde
TTITLE5=Miles From The Sea
TTITLE6=Coyoacán
TTITLE7=Beneath The City Of Dreams
TTITLE8=Woodshed Waltz
TTITLE9=Moon Never Rises
TTITLE10=World Undone
TTITLE11=Follow The River
EXTD=
EXTT0=
EXTT1=
EXTT2=
EXTT3=
EXTT4=
EXTT5=
EXTT6=
EXTT7=
EXTT8=
EXTT9=
EXTT10=
EXTT11=
PLAYORDER=
